<?xml version="1.0" encoding="iso-8859-1"?>
<!-- Generator: Adobe Illustrator 16.0.0, SVG Export Plug-In . SVG Version: 6.00 Build 0)  -->
<!DOCTYPE svg PUBLIC "-//W3C//DTD SVG 1.1//EN" "http://www.w3.org/Graphics/SVG/1.1/DTD/svg11.dtd">
<svg version="1.1" id="Capa_1" xmlns="http://www.w3.org/2000/svg" xmlns:xlink="http://www.w3.org/1999/xlink" x="0px" y="0px"
	 width="612px" height="612px" viewBox="0 0 612 612" style="enable-background:new 0 0 612 612;" xml:space="preserve">
<g>
	<path d="M265.551,74.371l12.772-14.861H138.71L0,219.445h140.777L265.551,74.371z M174.198,219.456h263.68l-71.684-83.378
		l-60.14-69.943l-90.885,105.67L174.198,219.456z M1.687,244.793l262.146,275.854L138.471,244.793H1.687z M445.819,244.772h-22.846
		l-96.053,0.021H166.256l138.96,305.75l0.893,1.947l132.399-291.574L445.819,244.772z M348.56,520.255l261.732-275.451H473.627
		L348.56,520.255z M612,219.445L473.246,59.509H333.731l137.535,159.936H612z"/>
</g>
</svg>
