<?xml version="1.0" encoding="iso-8859-1"?>
<!-- Generator: Adobe Illustrator 16.0.0, SVG Export Plug-In . SVG Version: 6.00 Build 0)  -->
<!DOCTYPE svg PUBLIC "-//W3C//DTD SVG 1.1//EN" "http://www.w3.org/Graphics/SVG/1.1/DTD/svg11.dtd">
<svg version="1.1" id="Capa_1" xmlns="http://www.w3.org/2000/svg" xmlns:xlink="http://www.w3.org/1999/xlink" x="0px" y="0px"
	 width="48px" height="48px" viewBox="0 0 48 48" style="enable-background:new 0 0 48 48;" xml:space="preserve">
<g>
	<path d="M19.55,10.4c0-4.8,4.4-10.4,4.4-10.4s4.4,5.6,4.4,10.4c0,4.8-4.4,6.8-4.4,6.8S19.55,15.1,19.55,10.4z M14.15,22.7
		c3.8,2.8,8.1,0.6,8.1,0.6s0.9-4.8-2.9-7.6c-3.8-2.8-10.9-2.7-10.9-2.7S10.35,19.9,14.15,22.7z M46.45,23.5v12.4
		c0,1.5-0.701,3-1.9,3.899l-9.4,6.7c-1.3,1-3,1.5-4.6,1.5c-0.4,0-0.9,0-1.301-0.1c-2.1-0.301-4-1.5-5.199-3.2
		c-1.2,1.8-3.1,2.899-5.2,3.2c-0.5,0.1-1,0.1-1.4,0.1c-1.6,0-3.3-0.4-4.6-1.5l-9.4-6.7C2.25,38.9,1.55,37.4,1.55,35.9V23.5
		c0-2.7,2.1-4.8,4.8-4.8c2.7,0,4.8,2.1,4.8,4.8v4.8c0.7-0.3,1.3-0.399,2.1-0.399c1,0,2.1,0.3,2.8,0.899l6.4,4.601
		c0.6,0.5,1.2,0.899,1.6,1.5c0.4-0.5,1-1,1.6-1.5l0,0V23.1c-0.1-1-0.4-4.9,2.9-7.4c3.8-2.8,10.9-2.7,10.9-2.7s-1.9,6.9-5.701,9.7
		c-2.699,2-5.699,1.5-7.1,1V32.6l5.4-3.899c0.699-0.601,1.8-0.9,2.8-0.9c0.7,0,1.3,0.101,2.101,0.4v-4.8c0-2.7,2.1-4.8,4.799-4.8
		C44.35,18.7,46.45,20.8,46.45,23.5z M23.65,38.7c-0.1-1.5-1-3-2.4-3.9l-6.4-4.6c-1.2-0.9-2.8-0.601-3.7,0.6
		c-0.9,1.2-0.6,2.8,0.6,3.7l4.9,3.1c0.3,0.2,0.3,0.4,0.3,0.5c0,0.101,0,0.301-0.1,0.4c-0.1,0.3-0.3,0.3-0.4,0.3s-0.3,0-0.4-0.1
		l-6.7-4.3V23.5c0-1.5-1.2-2.7-2.7-2.7s-2.7,1.2-2.7,2.7v12.4c0,0.899,0.4,1.8,1.2,2.199l9.4,6.7c1,0.601,2.2,1,3.4,1
		c0.3,0,0.7-0.2,1-0.2c1.5-0.1,3-1,3.9-2.399C23.65,42,23.95,40.4,23.65,38.7z M44.05,23.5c0-1.5-1.2-2.7-2.7-2.7s-2.7,1.2-2.7,2.7
		v10.9l-6.699,4.3c-0.101,0.1-0.301,0.1-0.4,0.1s-0.301,0-0.4-0.3c-0.199-0.1-0.199-0.2-0.199-0.4c0-0.199,0-0.3,0.299-0.399
		l4.9-3.101c1.2-0.899,1.5-2.5,0.6-3.699c-0.899-1.2-2.5-1.5-3.699-0.601l-6.4,4.601c-1.3,0.899-2.2,2.399-2.4,3.899
		c-0.3,1.601,0,3.3,0.9,4.601c0.9,1.3,2.4,2.199,3.9,2.399c0.3,0,0.699,0.2,1,0.2c1.199,0,2.4-0.4,3.4-1l9.399-6.7
		c0.7-0.399,1.2-1.3,1.2-2.2V23.5z"/>
</g>
</svg>
