<?xml version="1.0" encoding="iso-8859-1"?>
<!-- Generator: Adobe Illustrator 16.0.0, SVG Export Plug-In . SVG Version: 6.00 Build 0)  -->
<!DOCTYPE svg PUBLIC "-//W3C//DTD SVG 1.1//EN" "http://www.w3.org/Graphics/SVG/1.1/DTD/svg11.dtd">
<svg version="1.1" id="Capa_1" xmlns="http://www.w3.org/2000/svg" xmlns:xlink="http://www.w3.org/1999/xlink" x="0px" y="0px"
	 width="867.801px" height="867.8px" viewBox="0 0 867.801 867.8" style="enable-background:new 0 0 867.801 867.8;"
	 xml:space="preserve">
	<g>
		<path d="M38.3,578.85C7.7,649.25,0.2,719.05,0,770.25c-0.1,44.2,35.8,80,80,80h357.9h349.9c44.199,0,80.1-35.8,80-80
			c-0.101-51.2-7.7-121-38.2-191.4c-59.3-136.6-166.601-285.5-279-357.4H437.9H317.2C204.8,293.35,97.5,442.25,38.3,578.85z
			 M489.801,575.15c-11.9-14.6-32.301-20.8-50.7-25c-22.8-5.199-43.3-10.399-63.901-21.899c-13.2-7.4-23.6-17.8-30.8-30.9
			c-7.1-13-10.7-28-10.7-44.399c0-29.301,10.5-53.301,31.3-71.5C377.3,370.65,394.1,363.15,413.1,359.75v-16
			c0-10.8,8.8-19.5,19.5-19.5h10.6c10.8,0,19.5,8.8,19.5,19.5v16.2c17.601,3.399,33.3,10.3,45,20.1c12.5,10.3,21.601,23.5,27.2,39.1
			c4.1,11.5-3.4,24-15.6,25.801l-10.301,1.5c-9.3,1.399-18.399-4.101-21.399-13c-2.5-7.301-5.8-13.301-9.9-17.9
			c-9.3-10.5-24-16.4-40.3-16.4c-17.3,0-33.701,6.8-43.8,18.101c-8.3,9.3-12.3,20-12.3,32.7c0,12.399,3.5,23,10.399,31.199
			c14.4,17.301,38,22.101,60.8,26.7c13.301,2.7,27.101,5.5,39,10.7c12.7,5.6,23.301,12.6,31.4,20.7c8.1,8.1,14.5,17.899,18.9,29.1
			c4.3,11.101,6.6,23.3,6.6,36.3c0,28.4-9.2,52.4-27.3,71.5c-14.9,15.601-35.1,26-58.4,30.101v11.8c0,10.8-8.8,19.5-19.5,19.5h-10.6
			c-10.8,0-19.5-8.8-19.5-19.5v-12.3c-12.8-2.4-25.101-6.601-36.101-12.2c-13-6.7-24.3-17.6-33.699-32.4
			c-6.301-9.899-10.801-21.3-13.601-34.1c-2.3-10.8,4.9-21.3,15.8-23.2l10.601-1.8c10.1-1.8,19.8,4.5,22.3,14.4
			c3,11.699,7,20.8,12,27.199c11.2,14.4,29.7,23,49.5,23l0,0c3.4,0,6.7-0.3,10-0.699c14.2-2.101,26.8-8.801,35.7-18.9
			c9.3-10.6,14-24,14-39.7C499.601,593.85,496.301,583.05,489.801,575.15z"/>
		<path d="M438.101,17.55h-0.2l0,0l-152.5,0.4c-27.9,0.1-44.5,31.2-29,54.4l68.4,102.6h113.1h0.4h113.1l68.4-102.6
			c15.5-23.2-1.101-54.3-29-54.4l-152.5-0.4l0,0H438.101z"/>
	</g>
</svg>
